<?xml version="1.0" encoding="UTF-8" standalone="no"?>
<svg
   xmlns:dc="http://purl.org/dc/elements/1.1/"
   xmlns:cc="http://creativecommons.org/ns#"
   xmlns:rdf="http://www.w3.org/1999/02/22-rdf-syntax-ns#"
   xmlns:svg="http://www.w3.org/2000/svg"
   xmlns="http://www.w3.org/2000/svg"
   xmlns:sodipodi="http://sodipodi.sourceforge.net/DTD/sodipodi-0.dtd"
   xmlns:inkscape="http://www.inkscape.org/namespaces/inkscape"
   width="297mm"
   height="82mm"
   viewBox="0 0 297 82"
   version="1.1"
   id="svg1114"
   inkscape:version="1.0.2-2 (e86c870879, 2021-01-15)"
   sodipodi:docname="gnoraz_letter_logo.svg">
  <defs
     id="defs1108">
    <linearGradient
       x1="0"
       y1="0"
       x2="1"
       y2="0"
       gradientUnits="userSpaceOnUse"
       gradientTransform="matrix(-0.56156203,24.70873,-24.70873,-0.56156203,59.901833,149.23319)"
       spreadMethod="pad"
       id="linearGradient176">
      <stop
         style="stop-opacity:1;stop-color:#b3b3b3"
         offset="0"
         id="stop172" />
      <stop
         style="stop-opacity:1;stop-color:#000000"
         offset="1"
         id="stop174" />
    </linearGradient>
    <linearGradient
       x1="0"
       y1="0"
       x2="1"
       y2="0"
       gradientUnits="userSpaceOnUse"
       gradientTransform="matrix(-1.5918294,-70.040497,-70.040497,1.5918294,210.75783,164.57672)"
       spreadMethod="pad"
       id="linearGradient156">
      <stop
         style="stop-opacity:1;stop-color:#b3b3b3"
         offset="0"
         id="stop152" />
      <stop
         style="stop-opacity:1;stop-color:#000000"
         offset="1"
         id="stop154" />
    </linearGradient>
    <linearGradient
       x1="0"
       y1="0"
       x2="1"
       y2="0"
       gradientUnits="userSpaceOnUse"
       gradientTransform="matrix(-1.5918294,-70.040497,-70.040497,1.5918294,447.36548,159.19928)"
       spreadMethod="pad"
       id="linearGradient216">
      <stop
         style="stop-opacity:1;stop-color:#b3b3b3"
         offset="0"
         id="stop212" />
      <stop
         style="stop-opacity:1;stop-color:#000000"
         offset="1"
         id="stop214" />
    </linearGradient>
    <linearGradient
       x1="0"
       y1="0"
       x2="1"
       y2="0"
       gradientUnits="userSpaceOnUse"
       gradientTransform="matrix(-1.5918294,-70.040497,-70.040497,1.5918294,541.14868,157.06784)"
       spreadMethod="pad"
       id="linearGradient236">
      <stop
         style="stop-opacity:1;stop-color:#b3b3b3"
         offset="0"
         id="stop232" />
      <stop
         style="stop-opacity:1;stop-color:#000000"
         offset="1"
         id="stop234" />
    </linearGradient>
    <linearGradient
       x1="0"
       y1="0"
       x2="1"
       y2="0"
       gradientUnits="userSpaceOnUse"
       gradientTransform="matrix(-1.5918294,-70.040497,-70.040497,1.5918294,630.78516,155.03065)"
       spreadMethod="pad"
       id="linearGradient256">
      <stop
         style="stop-opacity:1;stop-color:#b3b3b3"
         offset="0"
         id="stop252" />
      <stop
         style="stop-opacity:1;stop-color:#000000"
         offset="1"
         id="stop254" />
    </linearGradient>
    <linearGradient
       x1="0"
       y1="0"
       x2="1"
       y2="0"
       gradientUnits="userSpaceOnUse"
       gradientTransform="matrix(-1.5918294,-70.040497,-70.040497,1.5918294,743.7179,152.46399)"
       spreadMethod="pad"
       id="linearGradient276">
      <stop
         style="stop-opacity:1;stop-color:#b3b3b3"
         offset="0"
         id="stop272" />
      <stop
         style="stop-opacity:1;stop-color:#000000"
         offset="1"
         id="stop274" />
    </linearGradient>
    <linearGradient
       x1="0"
       y1="0"
       x2="1"
       y2="0"
       gradientUnits="userSpaceOnUse"
       gradientTransform="matrix(-1.5918294,-70.040497,-70.040497,1.5918294,454.54089,159.03619)"
       spreadMethod="pad"
       id="linearGradient136">
      <stop
         style="stop-opacity:1;stop-color:#b3b3b3"
         offset="0"
         id="stop132" />
      <stop
         style="stop-opacity:1;stop-color:#000000"
         offset="1"
         id="stop134" />
    </linearGradient>
    <linearGradient
       x1="0"
       y1="0"
       x2="1"
       y2="0"
       gradientUnits="userSpaceOnUse"
       gradientTransform="matrix(-1.5918294,-70.040497,-70.040497,1.5918294,339.32397,161.65477)"
       spreadMethod="pad"
       id="linearGradient176-7">
      <stop
         style="stop-opacity:1;stop-color:#b3b3b3"
         offset="0"
         id="stop172-6" />
      <stop
         style="stop-opacity:1;stop-color:#000000"
         offset="1"
         id="stop174-3" />
    </linearGradient>
    <linearGradient
       x1="0"
       y1="0"
       x2="1"
       y2="0"
       gradientUnits="userSpaceOnUse"
       gradientTransform="matrix(-1.5918294,-70.040497,-70.040497,1.5918294,372.76483,160.95448)"
       spreadMethod="pad"
       id="linearGradient196">
      <stop
         style="stop-opacity:1;stop-color:#b3b3b3"
         offset="0"
         id="stop192" />
      <stop
         style="stop-opacity:1;stop-color:#000000"
         offset="1"
         id="stop194" />
    </linearGradient>
    <linearGradient
       x1="0"
       y1="0"
       x2="1"
       y2="0"
       gradientUnits="userSpaceOnUse"
       gradientTransform="matrix(-1.5918294,-70.040497,-70.040497,1.5918294,367.13898,161.02261)"
       spreadMethod="pad"
       id="linearGradient296">
      <stop
         style="stop-opacity:1;stop-color:#b3b3b3"
         offset="0"
         id="stop292" />
      <stop
         style="stop-opacity:1;stop-color:#000000"
         offset="1"
         id="stop294" />
    </linearGradient>
    <linearGradient
       x1="0"
       y1="0"
       x2="1"
       y2="0"
       gradientUnits="userSpaceOnUse"
       gradientTransform="matrix(-1.5918294,-70.040497,-70.040497,1.5918294,426.08066,159.68303)"
       spreadMethod="pad"
       id="linearGradient316">
      <stop
         style="stop-opacity:1;stop-color:#b3b3b3"
         offset="0"
         id="stop312" />
      <stop
         style="stop-opacity:1;stop-color:#000000"
         offset="1"
         id="stop314" />
    </linearGradient>
    <linearGradient
       x1="0"
       y1="0"
       x2="1"
       y2="0"
       gradientUnits="userSpaceOnUse"
       gradientTransform="matrix(-1.5918294,-70.040497,-70.040497,1.5918294,200.57779,164.80809)"
       spreadMethod="pad"
       id="linearGradient336">
      <stop
         style="stop-opacity:1;stop-color:#b3b3b3"
         offset="0"
         id="stop332" />
      <stop
         style="stop-opacity:1;stop-color:#000000"
         offset="1"
         id="stop334" />
    </linearGradient>
    <clipPath
       clipPathUnits="userSpaceOnUse"
       id="clipPath18">
      <path
         d="M 0,1000 H 1000 V 0 H 0 Z"
         id="path16" />
    </clipPath>
    <clipPath
       clipPathUnits="userSpaceOnUse"
       id="clipPath346">
      <path
         d="M 0,1000 H 1000 V 0 H 0 Z"
         id="path344" />
    </clipPath>
  </defs>
  <sodipodi:namedview
     id="base"
     pagecolor="#ffffff"
     bordercolor="#666666"
     borderopacity="1.0"
     inkscape:pageopacity="0.0"
     inkscape:pageshadow="2"
     inkscape:zoom="0.98994949"
     inkscape:cx="428.73062"
     inkscape:cy="410.43033"
     inkscape:document-units="mm"
     inkscape:current-layer="layer1"
     inkscape:document-rotation="0"
     showgrid="false"
     inkscape:window-width="1856"
     inkscape:window-height="1198"
     inkscape:window-x="2820"
     inkscape:window-y="120"
     inkscape:window-maximized="0" />
  <metadata
     id="metadata1111">
    <rdf:RDF>
      <cc:Work
         rdf:about="">
        <dc:format>image/svg+xml</dc:format>
        <dc:type
           rdf:resource="http://purl.org/dc/dcmitype/StillImage" />
        <dc:title></dc:title>
      </cc:Work>
    </rdf:RDF>
  </metadata>
  <g
     inkscape:label="Layer 1"
     inkscape:groupmode="layer"
     id="layer1">
    <g
       id="g12"
       transform="matrix(0.44286948,0,0,-0.44286948,-59.292758,116.32221)">
      <g
         id="g14"
         clip-path="url(#clipPath18)">
        <g
           id="g20"
           transform="translate(882.0758,577.8912)" />
        <g
           id="g24"
           transform="translate(249.3287,112.8413)">
          <path
             d="M 0,0 C -3.749,1.626 -6.353,2.443 -7.818,2.443 H -9.284 L -9.773,2.199 c -0.488,0 -1.549,-0.164 -3.176,-0.489 -0.977,-0.328 -1.63,-0.488 -1.955,-0.488 h 0.245 l -0.488,-0.245 h -0.489 V -15.392 C -7.983,-11.158 -2.771,-6.027 0,0 m 4.764,14.659 c 0.244,2.115 0.367,4.233 0.367,6.352 v 1.954 C 4.966,23.454 4.886,25.081 4.886,27.852 L 4.641,28.096 C 4.478,28.096 4.07,27.932 3.42,27.608 2.603,27.279 1.626,27.035 0.488,26.875 0.325,26.875 0.202,26.833 0.122,26.752 0.038,26.668 -0.085,26.63 -0.245,26.63 -2.199,25.977 -3.749,25.653 -4.887,25.653 h -4.397 c -1.955,0 -3.585,0.324 -4.887,0.977 -0.328,0 -0.733,0.08 -1.221,0.245 h 0.245 -0.489 V 10.506 c 0.649,0.16 1.626,0.404 2.932,0.733 h 1.221 0.489 2.198 c 3.909,0 8.143,-0.897 12.705,-2.688 0.324,1.955 0.611,3.989 0.855,6.108 M 3.176,37.136 c -3.584,10.749 -9.857,17.67 -18.812,20.766 V 36.403 c 1.302,-0.328 2.443,-0.611 3.42,-0.855 0.977,-0.245 1.71,-0.45 2.199,-0.611 h 0.733 3.664 c 3.092,0 6.025,0.733 8.796,2.199 m -28.952,71.095 c -0.572,0.648 -1.427,1.382 -2.564,2.199 l -3.176,-1.71 V 60.834 l 32.982,44.465 c -4.562,-2.283 -9.04,-3.42 -13.437,-3.42 -3.585,0 -7.739,1.626 -12.461,4.886 -0.328,0.324 -0.775,0.813 -1.344,1.466 M 17.835,-11.482 c -16.614,-12.052 -35.102,-18.08 -55.459,-18.08 -21.988,0 -39.908,6.681 -53.749,20.035 -14.498,13.352 -21.744,30.943 -21.744,52.771 0,21.335 6.269,39.823 18.812,55.458 12.865,16.125 29.722,25.733 50.573,28.829 l 0.488,-1.465 c -1.954,-1.306 -4.03,-2.852 -6.23,-4.642 -2.198,-1.795 -4.275,-3.585 -6.23,-5.375 C -73.622,99.596 -82.577,77.363 -82.577,49.351 l 0.243,-0.244 v -2.443 l -0.243,-0.244 c 0,-2.443 0.243,-6.596 0.732,-12.46 0.325,-5.05 1.259,-10.101 2.81,-15.148 1.545,-5.05 3.703,-9.936 6.474,-14.659 5.699,-10.749 12.864,-17.754 21.5,-21.01 4.397,-1.466 10.016,-2.199 16.857,-2.199 h 0.488 c 0.325,0.16 0.814,0.244 1.467,0.244 h 2.687 c 0.324,0.161 1.302,0.244 2.932,0.244 l 0.488,0.245 h 0.977 0.245 v 74.027 l -6.596,-8.551 V 18.079 c 0,-2.931 -1.142,-6.271 -3.421,-10.016 -5.375,-9.124 -13.437,-13.682 -24.187,-13.682 h -1.71 v 1.71 l 0.244,0.245 c 0,0.488 0.16,0.893 0.489,1.221 l 0.244,0.245 -0.244,-0.733 c 0,-0.165 0.08,0.202 0.244,1.099 0.16,0.894 0.325,1.668 0.488,2.321 l 0.49,2.443 v 88.93 l -6.108,-3.665 v 10.994 l 55.459,34.204 c 5.535,-7.329 11.726,-10.994 18.567,-10.994 0.325,0 0.569,0.038 0.733,0.122 0.161,0.08 0.405,0.122 0.733,0.122 0.814,0.161 1.382,0.282 1.71,0.367 0.325,0.08 1.057,0.366 2.199,0.855 l 5.376,2.687 5.13,-3.909 -39.824,-53.504 C 18.648,63.113 35.425,47.802 35.425,23.21 c 0,-14.659 -5.863,-26.226 -17.59,-34.692"
             style="fill:#333333;fill-opacity:1;fill-rule:nonzero;stroke:none"
             id="path26" />
        </g>
        <g
           id="g28"
           transform="translate(373.4362,82.7916)">
          <path
             d="m 0,0 c -2.283,0.164 -4.561,0.733 -6.841,1.71 -2.282,0.977 -4.481,2.282 -6.596,3.909 -3.909,3.096 -5.863,6.921 -5.863,11.483 v 64.009 c -0.653,0 -1.142,0.081 -1.466,0.245 h -0.489 l -0.245,0.244 -0.976,0.488 h 0.243 c -2.606,0.649 -4.726,1.547 -6.351,2.688 -1.63,1.137 -3.096,2.604 -4.398,4.398 L -42.998,81.111 V 29.806 c 1.953,-0.817 3.744,-1.63 5.374,-2.443 1.626,-0.817 2.932,-1.63 3.909,-2.444 1.79,-1.141 3.379,-2.405 4.764,-3.787 1.382,-1.385 2.645,-2.809 3.787,-4.275 L -47.885,0.488 c -8.795,8.307 -17.754,12.46 -26.874,12.46 h -0.733 l -0.245,-0.244 h -1.222 l -0.243,-0.244 h -0.978 l -0.244,-0.245 h -2.443 c 1.302,6.353 5.13,11.399 11.483,15.148 v 54.97 c -2.932,4.886 -7.006,7.329 -12.216,7.329 l -0.488,0.244 h -1.222 v 1.711 l 24.92,24.92 c 2.603,-2.283 4.844,-4.36 6.718,-6.23 1.871,-1.875 3.378,-3.707 4.52,-5.497 2.603,-4.073 3.989,-8.391 4.154,-12.949 l 28.828,24.187 c 6.841,-9.448 12.132,-14.17 15.88,-14.17 1.79,0 5.944,1.382 12.461,4.153 v -3.42 l -0.245,-0.489 V 99.679 L 13.682,99.19 c 0,-3.908 -2.199,-8.062 -6.597,-12.459 V 29.806 c 0,-3.26 2.443,-4.887 7.329,-4.887 h 0.978 l 0.244,0.245 h 1.955 l 0.244,0.244 h 3.176 z"
             style="fill:#333333;fill-opacity:1;fill-rule:nonzero;stroke:none"
             id="path30" />
        </g>
        <g
           id="g32"
           transform="translate(459.4313,107.7108)">
          <path
             d="m 0,0 h 0.244 v 59.124 c -5.539,0.16 -10.262,3.256 -14.17,9.284 -2.771,-1.631 -5.864,-2.443 -9.284,-2.443 V 7.085 c 1.302,-0.816 2.848,-1.222 4.642,-1.222 l 0.977,-0.488 h -0.244 c 0.488,-0.164 1.301,-0.408 2.443,-0.733 1.626,-0.652 4.558,-2.932 8.795,-6.84 l 2.932,1.465 c 0.977,0 2.198,0.245 3.665,0.733 m 35.669,75.004 v -1.221 l -0.244,-0.489 c 0,-0.977 -0.328,-1.996 -0.977,-3.054 -0.653,-1.061 -1.466,-2.405 -2.444,-4.031 -1.141,-1.305 -2.16,-2.443 -3.053,-3.42 -0.898,-0.977 -1.753,-1.63 -2.565,-1.955 V 4.642 c 0,-5.538 2.198,-10.344 6.596,-14.414 -6.192,1.302 -11.159,1.955 -14.904,1.955 -18.731,0 -33.959,-5.62 -45.686,-16.859 -8.795,9.124 -16.697,13.682 -23.698,13.682 -1.305,0 -2.932,-0.244 -4.886,-0.733 l -4.887,-0.733 c 0.649,7.001 4.558,12.216 11.727,15.637 l -0.244,63.765 v -0.244 l -0.732,2.199 c -0.165,0 -0.245,0.16 -0.245,0.488 l -0.489,0.488 v 0.489 l -0.244,0.245 -0.489,0.977 c -0.328,0.324 -0.488,0.733 -0.488,1.221 0,0.16 -0.084,0.245 -0.245,0.245 v 0.488 -0.733 l -0.244,0.489 v 2.687 c 1.954,-0.653 4.069,-1.141 6.352,-1.465 2.28,-0.329 4.803,-0.489 7.574,-0.489 17.262,0 32.818,5.699 46.663,17.102 5.375,-7.982 10.261,-12.788 14.659,-14.415 2.443,-0.816 4.314,-1.221 5.62,-1.221 0.813,0 1.79,0.202 2.931,0.611 1.137,0.405 2.768,1.259 4.886,2.565 v -3.176 z"
             style="fill:#333333;fill-opacity:1;fill-rule:nonzero;stroke:none"
             id="path34" />
        </g>
        <g
           id="g36"
           transform="translate(574.5015,166.1019)">
          <path
             d="m 0,0 c -3.749,-4.073 -8.551,-6.108 -14.414,-6.108 -4.726,0 -9.284,2.115 -13.682,6.353 l -6.596,-6.841 v -43.977 c 0.324,-0.164 0.813,-0.328 1.465,-0.488 0.65,-0.165 1.382,-0.328 2.2,-0.489 h -0.245 c 3.257,-0.329 6.596,-2.199 10.017,-5.619 l 4.398,4.398 5.375,-5.864 -25.165,-24.432 c -9.123,8.636 -17.674,12.949 -25.653,12.949 -1.629,0 -3.053,-0.206 -4.275,-0.611 -1.222,-0.408 -2.485,-0.775 -3.787,-1.099 l -3.175,-1.221 c 0,5.046 2.523,10.096 7.573,15.147 0.978,0.977 1.832,1.71 2.565,2.198 0.733,0.49 1.344,0.894 1.833,1.222 l -0.489,-0.244 0.733,0.733 h 0.732 l 0.245,0.244 v 50.573 c -1.141,1.626 -2.405,2.97 -3.787,4.031 -1.385,1.057 -2.974,1.993 -4.764,2.81 -0.488,0.16 -1.221,0.404 -2.198,0.733 -0.329,0.16 -1.02,0.366 -2.077,0.611 -1.061,0.243 -1.833,0.446 -2.321,0.61 10.096,5.863 17.995,14.33 23.698,25.408 8.631,-4.397 14.331,-12.215 17.102,-23.453 l 2.199,2.932 c 0.813,0.813 1.626,1.667 2.443,2.565 0.813,0.893 1.71,1.912 2.687,3.054 3.092,3.092 6.512,7.573 10.261,13.437 v 0.732 l 1.955,0.245 c 2.932,-9.284 7.245,-13.926 12.949,-13.926 1.954,0 4.557,1.466 7.818,4.398 V 15.392 C 5.62,9.2 3.745,4.069 0,0"
             style="fill:#333333;fill-opacity:1;fill-rule:nonzero;stroke:none"
             id="path38" />
        </g>
        <g
           id="g40"
           transform="translate(636.5557,106.0006)"
           inkscape:groupmode="layer">
          <path
             d="m 0,0 h 0.244 l 0.244,0.245 v 58.146 c -2.283,0 -4.726,1.71 -7.329,5.131 -3.585,-4.562 -8.063,-6.841 -13.437,-6.841 l -0.489,-0.245 h -5.13 -1.466 c -0.489,0 -0.977,0.08 -1.466,0.245 L -1.466,25.653 -7.574,20.279 -22.722,36.647 c -1.629,-3.096 -2.771,-5.825 -3.42,-8.185 -0.653,-2.362 -0.976,-4.439 -0.976,-6.23 0,-6.351 2.033,-11.81 6.107,-16.368 4.397,-4.887 9.444,-7.33 15.148,-7.33 2.603,0 4.557,0.49 5.863,1.466 m 25.409,-21.988 h -0.245 l -0.244,-0.245 h -0.978 l -0.244,-0.243 h -0.733 l -0.243,-0.245 h -1.955 c -3.91,0 -7.983,1.794 -12.216,5.375 -1.63,1.631 -3.096,3.138 -4.398,4.52 -1.305,1.382 -2.363,2.889 -3.176,4.52 l -16.613,-14.17 h -1.466 c -7.005,0 -13.846,2.038 -20.522,6.108 -3.261,2.282 -5.905,4.721 -7.94,7.329 -2.039,2.604 -3.462,5.535 -4.276,8.795 -0.653,2.115 -0.978,5.131 -0.978,9.04 0,12.865 7.41,24.347 22.233,34.448 -0.328,0.488 -1.019,1.344 -2.077,2.565 -1.061,1.222 -2.649,2.97 -4.764,5.252 -1.305,1.467 -2.729,3.135 -4.275,5.009 -1.55,1.87 -3.298,3.948 -5.253,6.23 h 0.244 c -1.63,0.977 -4.153,3.336 -7.573,7.085 11.727,4.233 21.091,10.586 28.096,19.057 l 1.222,-1.467 0.243,-0.488 c 0.814,-0.817 1.955,-2.241 3.421,-4.276 1.466,-2.038 2.604,-3.706 3.42,-5.008 v 0.245 c 2.768,-3.585 5.62,-5.375 8.551,-5.375 h -0.488 l 1.221,0.488 c 0.324,-0.328 0.649,-0.488 0.977,-0.488 3.257,0 8.223,4.397 14.904,13.192 l 0.244,0.489 c 0.324,0.488 0.61,0.893 0.855,1.221 0.245,0.325 1.015,1.139 2.321,2.443 0,-1.465 0.08,-2.282 0.245,-2.443 -0.165,0 -0.043,-0.286 0.366,-0.854 0.405,-0.573 0.935,-1.184 1.588,-1.833 v 0.244 c 4.233,-5.214 8.306,-7.818 12.216,-7.818 1.791,0 4.886,0.734 9.284,2.199 v -1.954 c 0,-7.005 -3.504,-12.545 -10.506,-16.613 V 9.773 c 0,-3.096 1.138,-5.581 3.42,-7.452 2.28,-1.874 5.131,-2.893 8.552,-3.054 l 0.243,0.245 H 40.8 Z"
             style="fill:#333333;fill-opacity:1;fill-rule:nonzero;stroke:none"
             id="path42" />
        </g>
        <g
           id="g44"
           transform="translate(781.4321,83.2798)">
          <path
             d="m 0,0 c -1.794,1.141 -3.993,2.283 -6.596,3.42 -2.608,1.141 -5.864,2.283 -9.773,3.421 -7.657,2.283 -13.193,3.42 -16.613,3.42 h -2.199 c -1.141,0 -2.607,0.08 -4.398,0.245 -1.794,0.16 -3.34,0.243 -4.641,0.243 h -2.688 c -12.216,0 -23.943,-1.465 -35.181,-4.396 -1.794,-0.49 -3.993,-1.181 -6.596,-2.077 -2.608,-0.894 -5.619,-1.993 -9.04,-3.299 l -1.954,6.352 c 15.96,14.006 29.966,37.705 42.022,71.095 -1.955,-0.163 -4.238,-0.408 -6.841,-0.733 -2.608,-0.328 -5.539,-0.732 -8.796,-1.221 -2.443,-0.817 -4.764,-1.508 -6.962,-2.077 -2.2,-0.572 -4.44,-1.019 -6.719,-1.344 l 10.505,26.142 c 6.841,-2.119 15.472,-3.177 25.897,-3.177 5.863,13.194 16.449,27.852 31.761,43.977 -17.102,-7.169 -32.005,-10.75 -44.709,-10.75 -11.238,0 -19.057,2.279 -23.454,6.841 l -4.642,-4.642 -5.13,5.131 23.453,28.829 c 1.466,-1.119 4.723,-2.875 9.773,-5.265 9.772,-4.309 20.193,-6.462 31.272,-6.462 16.937,0 31.676,3.664 44.22,10.994 l 3.665,-4.887 c -1.466,-1.465 -3.34,-3.79 -5.619,-6.97 -2.283,-3.18 -5.215,-7.219 -8.795,-12.113 -4.398,-7.508 -8.307,-14.853 -11.728,-22.033 -3.42,-7.182 -6.271,-14.442 -8.551,-21.787 0.978,0 2.321,0.08 4.032,0.245 1.71,0.16 3.786,0.405 6.229,0.733 L 1.71,99.081 H 1.466 c 1.954,0.488 3.745,0.732 5.375,0.732 H 6.353 l 0.488,0.244 c 0.813,0 1.588,0.039 2.321,0.123 0.733,0.08 1.504,0.202 2.321,0.37 h 2.199 L 1.71,76.313 -25.408,78.76 c -1.794,-4.081 -3.749,-8.081 -5.864,-11.997 -2.118,-3.917 -4.318,-7.834 -6.597,-11.75 -7.817,-12.079 -16.696,-22.271 -26.629,-30.582 17.102,6.352 32.573,9.528 46.419,9.528 7.654,0 15.636,-1.061 23.942,-3.176 l 6.841,-1.954 4.153,4.886 6.353,-4.153 z"
             style="fill:#333333;fill-opacity:1;fill-rule:nonzero;stroke:none"
             id="path46" />
        </g>
        <g
           id="g48"
           transform="translate(607.2217,229.7935)">
          <path
             d="m 0,0 h -6.539 l 3.27,8.933 c 0,0 3.454,-4.11 3.269,-8.933"
             style="fill:#b3b3b3;fill-opacity:1;fill-rule:nonzero;stroke:none"
             id="path50" />
        </g>
        <g
           id="g52"
           transform="translate(606.1115,232.743)">
          <path
             d="M 0,0 -5.428,25.846 -7.032,24.55 -3.948,-1.974 Z"
             style="fill:#b3b3b3;fill-opacity:1;fill-rule:nonzero;stroke:none"
             id="path54" />
        </g>
        <g
           id="g56"
           transform="translate(607.2217,229.7935)">
          <path
             d="m 0,0 h -6.539 l 3.27,-8.933 c 0,0 3.454,4.11 3.269,8.933"
             style="fill:#b3b3b3;fill-opacity:1;fill-rule:nonzero;stroke:none"
             id="path58" />
        </g>
        <g
           id="g60"
           transform="translate(606.1115,226.844)">
          <path
             d="m 0,0 -5.428,-25.846 -1.604,1.296 3.084,26.524 z"
             style="fill:#b3b3b3;fill-opacity:1;fill-rule:nonzero;stroke:none"
             id="path62" />
        </g>
        <g
           id="g64"
           transform="translate(596.2993,229.7935)">
          <path
             d="M 0,0 C 2.754,5.226 0,8.778 0,8.778 H -270.306 C -290.575,8.778 -312.687,0 -312.687,0 c 0,0 22.112,-8.778 42.381,-8.778 H 0 c 0,0 2.754,3.552 0,8.778"
             style="fill:#b3b3b3;fill-opacity:1;fill-rule:nonzero;stroke:none"
             id="path66" />
        </g>
        <g
           id="g68"
           transform="translate(656.1603,229.7935)">
          <path
             d="m 0,0 c 0,0 -0.065,-3.427 -1.145,-6.469 0,0 1.309,-0.816 2.65,0 C 2.336,-5.964 3.148,0 3.148,0 c 0,0 -0.812,5.964 -1.643,6.469 -1.341,0.816 -2.65,0 -2.65,0 C -0.065,3.427 0,0 0,0"
             style="fill:#b3b3b3;fill-opacity:1;fill-rule:nonzero;stroke:none"
             id="path70" />
        </g>
        <g
           id="g72"
           transform="translate(612.0814,229.7935)">
          <path
             d="m 0,0 c 0,0 -0.813,5.964 -1.644,6.469 -1.341,0.816 -2.649,0 -2.649,0 C -3.214,3.427 -3.148,0 -3.148,0 c 0,0 -0.066,-3.427 -1.145,-6.469 0,0 1.308,-0.816 2.649,0 C -0.813,-5.964 0,0 0,0"
             style="fill:#b3b3b3;fill-opacity:1;fill-rule:nonzero;stroke:none"
             id="path74" />
        </g>
        <g
           id="g76"
           transform="translate(616.3749,229.7935)">
          <path
             d="m 0,0 c 0,0 -0.813,5.964 -1.644,6.469 -1.341,0.816 -2.649,0 -2.649,0 C -3.214,3.427 -3.148,0 -3.148,0 c 0,0 -0.066,-3.427 -1.145,-6.469 0,0 1.308,-0.816 2.649,0 C -0.813,-5.964 0,0 0,0"
             style="fill:#b3b3b3;fill-opacity:1;fill-rule:nonzero;stroke:none"
             id="path78" />
        </g>
        <g
           id="g80"
           transform="translate(620.6682,229.7935)">
          <path
             d="m 0,0 c 0,0 -0.813,5.964 -1.644,6.469 -1.341,0.816 -2.649,0 -2.649,0 C -3.214,3.427 -3.148,0 -3.148,0 c 0,0 -0.066,-3.427 -1.145,-6.469 0,0 1.308,-0.816 2.649,0 C -0.813,-5.964 0,0 0,0"
             style="fill:#b3b3b3;fill-opacity:1;fill-rule:nonzero;stroke:none"
             id="path82" />
        </g>
        <g
           id="g84"
           transform="translate(624.9615,229.7935)">
          <path
             d="m 0,0 c 0,0 -0.813,5.964 -1.644,6.469 -1.341,0.816 -2.649,0 -2.649,0 C -3.214,3.427 -3.148,0 -3.148,0 c 0,0 -0.066,-3.427 -1.145,-6.469 0,0 1.308,-0.816 2.649,0 C -0.813,-5.964 0,0 0,0"
             style="fill:#b3b3b3;fill-opacity:1;fill-rule:nonzero;stroke:none"
             id="path86" />
        </g>
        <g
           id="g88"
           transform="translate(629.255,229.7935)">
          <path
             d="m 0,0 c 0,0 -0.813,5.964 -1.644,6.469 -1.341,0.816 -2.649,0 -2.649,0 C -3.214,3.427 -3.148,0 -3.148,0 c 0,0 -0.066,-3.427 -1.145,-6.469 0,0 1.308,-0.816 2.649,0 C -0.813,-5.964 0,0 0,0"
             style="fill:#b3b3b3;fill-opacity:1;fill-rule:nonzero;stroke:none"
             id="path90" />
        </g>
        <g
           id="g92"
           transform="translate(633.5484,229.7935)">
          <path
             d="m 0,0 c 0,0 -0.813,5.964 -1.644,6.469 -1.341,0.816 -2.649,0 -2.649,0 C -3.214,3.427 -3.148,0 -3.148,0 c 0,0 -0.066,-3.427 -1.145,-6.469 0,0 1.308,-0.816 2.649,0 C -0.813,-5.964 0,0 0,0"
             style="fill:#b3b3b3;fill-opacity:1;fill-rule:nonzero;stroke:none"
             id="path94" />
        </g>
        <g
           id="g96"
           transform="translate(637.8417,229.7935)">
          <path
             d="m 0,0 c 0,0 -0.813,5.964 -1.644,6.469 -1.341,0.816 -2.649,0 -2.649,0 C -3.214,3.427 -3.148,0 -3.148,0 c 0,0 -0.066,-3.427 -1.145,-6.469 0,0 1.308,-0.816 2.649,0 C -0.813,-5.964 0,0 0,0"
             style="fill:#b3b3b3;fill-opacity:1;fill-rule:nonzero;stroke:none"
             id="path98" />
        </g>
        <g
           id="g100"
           transform="translate(642.1351,229.7935)">
          <path
             d="m 0,0 c 0,0 -0.813,5.964 -1.644,6.469 -1.341,0.816 -2.649,0 -2.649,0 C -3.214,3.427 -3.148,0 -3.148,0 c 0,0 -0.066,-3.427 -1.145,-6.469 0,0 1.308,-0.816 2.649,0 C -0.813,-5.964 0,0 0,0"
             style="fill:#b3b3b3;fill-opacity:1;fill-rule:nonzero;stroke:none"
             id="path102" />
        </g>
        <g
           id="g104"
           transform="translate(646.4285,229.7935)">
          <path
             d="m 0,0 c 0,0 -0.813,5.964 -1.644,6.469 -1.341,0.816 -2.649,0 -2.649,0 C -3.214,3.427 -3.148,0 -3.148,0 c 0,0 -0.066,-3.427 -1.145,-6.469 0,0 1.308,-0.816 2.649,0 C -0.813,-5.964 0,0 0,0"
             style="fill:#b3b3b3;fill-opacity:1;fill-rule:nonzero;stroke:none"
             id="path106" />
        </g>
        <g
           id="g108"
           transform="translate(650.7219,229.7935)">
          <path
             d="m 0,0 c 0,0 -0.813,5.964 -1.644,6.469 -1.341,0.816 -2.649,0 -2.649,0 C -3.214,3.427 -3.148,0 -3.148,0 c 0,0 -0.066,-3.427 -1.145,-6.469 0,0 1.308,-0.816 2.649,0 C -0.813,-5.964 0,0 0,0"
             style="fill:#b3b3b3;fill-opacity:1;fill-rule:nonzero;stroke:none"
             id="path110" />
        </g>
        <g
           id="g112"
           transform="translate(655.0153,229.7935)">
          <path
             d="m 0,0 c 0,0 -0.813,5.964 -1.644,6.469 -1.341,0.816 -2.649,0 -2.649,0 C -3.214,3.427 -3.148,0 -3.148,0 c 0,0 -0.066,-3.427 -1.145,-6.469 0,0 1.308,-0.816 2.649,0 C -0.813,-5.964 0,0 0,0"
             style="fill:#b3b3b3;fill-opacity:1;fill-rule:nonzero;stroke:none"
             id="path114" />
        </g>
        <g
           id="g116"
           transform="translate(672.7233,229.7935)">
          <path
             d="M 0,0 -8.692,8.78 -12.517,6.832 -10.894,0 -12.517,-6.832 -8.692,-8.78 Z"
             style="fill:#b3b3b3;fill-opacity:1;fill-rule:nonzero;stroke:none"
             id="path118" />
        </g>
      </g>
    </g>
    <g
       id="g120"
       transform="matrix(0.44286948,0,0,-0.44286948,-59.292758,116.32221)">
      <g
         id="g122">
        <g
           id="g128">
          <g
             id="g130">
            <path
               d="m 452.724,109.061 c 0.16,-0.141 0.323,-0.286 0.49,-0.435 v 0 l 0.871,0.435 z"
               style="fill:url(#linearGradient136);stroke:none"
               id="path138" />
          </g>
        </g>
      </g>
    </g>
    <g
       id="g140"
       transform="matrix(0.44286948,0,0,-0.44286948,-59.292758,116.32221)">
      <g
         id="g142">
        <g
           id="g148">
          <g
             id="g150">
            <path
               d="m 187.428,209.441 v -3.455 l 6.108,3.664 v -90.979 l 3.206,3.206 -4.032,-12.084 c 8.249,0.68 14.394,4.617 18.731,11.977 v 0 c 1.979,3.253 2.97,6.057 2.97,8.37 v 0 11.911 l -0.377,0.128 h 0.377 v 18.14 l 13.085,16.96 v -35.1 h 6.529 l 1.845,-0.249 0.585,-0.339 c 0.838,-0.421 1.994,-0.634 3.433,-0.634 v 0 h 4.396 c 0.444,0 1.504,0.105 3.616,0.81 v 0 l 0.015,0.005 c 0.433,0.22 0.916,0.354 1.425,0.395 v 0 c 0.762,0.114 1.412,0.271 1.937,0.469 v 0 c 1.006,0.496 1.723,0.764 2.536,0.764 v 0 h 1.341 l 2.147,-2.141 v -1.347 c 0,-2.82 0.086,-3.735 0.122,-3.989 v 0 l 0.123,-0.366 v -2.485 c 0,-2.226 -0.131,-4.489 -0.388,-6.723 v 0 -0.002 c -0.246,-2.133 -0.541,-4.241 -0.878,-6.266 v 0 l -0.655,-3.953 -3.73,1.464 c -4.163,1.635 -8.039,2.463 -11.519,2.463 v 0 h -3.509 l -6.575,-1.632 v 18.266 l -2.796,0.945 v -47.14 h -3.699 l -0.488,-0.245 h -0.768 c -1.034,0 -1.566,-0.037 -1.804,-0.062 v 0 l -0.37,-0.182 h -3.444 c -0.083,0 -0.16,0 -0.228,-0.006 v 0 l -0.484,-0.238 h -1.243 c -7.158,0 -13.175,0.796 -17.882,2.365 v 0 c -9.457,3.563 -17.258,11.121 -23.309,22.506 v 0 c -2.867,4.897 -5.137,10.041 -6.743,15.291 v 0 c -1.614,5.257 -2.605,10.603 -2.945,15.89 v 0 c -0.495,5.937 -0.738,10.1 -0.738,12.667 v 0 1.339 l 0.125,0.126 -0.125,0.125 v 1.341 c 0,28.829 9.395,52.073 27.923,69.087 v 0 c 1.313,1.202 2.699,2.422 4.145,3.647 v 0 C 180.202,229.846 167.447,221.33 157.402,208.74 v 0 c -12.015,-14.977 -18.104,-32.953 -18.104,-53.436 v 0 c 0,-20.785 6.965,-37.737 20.697,-50.385 v 0 c 13.21,-12.742 30.536,-19.177 51.552,-19.177 v 0 c 19.564,0 37.582,5.875 53.554,17.462 v 0 l 0.006,0.004 c 10.932,7.893 16.246,18.38 16.246,32.062 v 0 c 0,22.998 -15.588,36.977 -47.659,42.738 v 0 l -5.155,0.927 41.035,55.135 -0.97,0.739 -3.74,-1.863 c -1.721,-0.738 -2.313,-0.927 -2.697,-1.022 v 0 c -0.337,-0.087 -0.965,-0.223 -1.865,-0.401 v 0 l -0.431,-0.061 c -0.483,-0.162 -1.036,-0.245 -1.66,-0.245 v 0 c -7.102,0 -13.583,3.355 -19.298,9.978 v 0 z m 61.758,10.82 12.153,6.081 -46.928,-63.266 v 59.642 l 6.666,3.589 1.645,-1.182 c 1.348,-0.967 2.365,-1.847 3.106,-2.688 v 0 l 0.012,-0.013 c 0.398,-0.457 0.728,-0.825 0.991,-1.1 v 0 c 4.04,-2.748 7.527,-4.141 10.369,-4.141 v 0 c 3.872,0 7.906,1.035 11.986,3.078 m -11.044,-76.346 c -0.439,0.145 -1.097,0.327 -1.975,0.546 v 0 l -5.875,1.477 v 28.578 l 4.305,-1.487 c 9.919,-3.43 16.927,-11.104 20.827,-22.807 v 0 l 0.87,-2.609 -2.43,-1.284 c -3.233,-1.709 -6.702,-2.576 -10.311,-2.576 v 0 h -4.917 z m -2.95,-27.07 0.396,0.106 c 1.451,0.29 2.342,0.431 2.936,0.497 v 0 l 0.6,0.299 h 2.23 c 1.343,0 3.07,-0.385 5.394,-1.22 v 0 h 1.474 l -0.627,-0.314 c 0.875,-0.334 1.827,-0.726 2.868,-1.177 v 0 l 3.041,-1.319 -1.385,-3.012 c -3.054,-6.641 -8.777,-12.318 -17.013,-16.875 v 0 l -4.814,-2.664 v 25.116 l 3.976,0.245 c -0.052,-0.001 -0.134,0 -0.223,-0.014 v 0 c 0.013,0.002 0.303,0.051 1.147,0.332"
               style="fill:url(#linearGradient156);stroke:none"
               id="path158" />
          </g>
        </g>
      </g>
    </g>
    <g
       id="g160"
       transform="matrix(0.44286948,0,0,-0.44286948,-59.292758,116.32221)">
      <g
         id="g162">
        <g
           id="g168">
          <g
             id="g170">
            <path
               d="m 295.452,174.523 c 4.618,-0.999 8.453,-3.892 11.224,-8.51 v 0 l 0.462,-0.771 v -57.72 l -1.594,-0.941 c -3.893,-2.298 -6.654,-5.064 -8.349,-8.378 v 0 h 1.325 c 9.233,0 18.342,-3.879 27.109,-11.537 v 0 l 17.744,12.784 c -0.433,0.472 -0.88,0.941 -1.342,1.404 v 0 c -1.212,1.208 -2.631,2.335 -4.21,3.341 v 0 l -0.331,0.241 c -0.777,0.645 -1.884,1.331 -3.291,2.039 v 0 c -1.53,0.763 -3.271,1.555 -5.17,2.349 v 0 l -1.992,0.834 v 55.017 l 13.881,11.173 2.004,-2.757 c 1.085,-1.496 2.306,-2.722 3.628,-3.644 v 0 c 1.303,-0.913 3.076,-1.652 5.28,-2.2 v 0 l 4.749,-1.182 0.644,-0.081 v -0.079 l 19.899,-4.95 v 9.13 l 0.949,0.95 c 3.746,3.747 5.646,7.167 5.646,10.166 v 0 0.766 l 0.244,0.489 v 0.66 c -5.556,-2.148 -7.718,-2.471 -8.972,-2.471 v 0 c -4.572,0 -9.702,3.95 -16.428,12.719 v 0 l -31.282,-26.245 -0.24,6.636 c -0.143,3.95 -1.37,7.759 -3.645,11.318 v 0 c -1.009,1.583 -2.382,3.248 -4.084,4.955 v 0 c -1.242,1.238 -2.68,2.598 -4.293,4.061 v 0 z"
               style="fill:url(#linearGradient176-7);stroke:none"
               id="path178" />
          </g>
        </g>
      </g>
    </g>
    <g
       id="g180"
       transform="matrix(0.44286948,0,0,-0.44286948,-59.292758,116.32221)">
      <g
         id="g182">
        <g
           id="g188">
          <g
             id="g190">
            <path
               d="M 357.223,160.855 V 99.113 c 0,-3.547 1.515,-6.472 4.632,-8.94 v 0 c 1.859,-1.43 3.842,-2.607 5.859,-3.471 v 0 c 1.398,-0.598 2.803,-1.02 4.195,-1.26 v 0 l 15.095,18.254 c -8.903,0.269 -9.882,5.737 -9.882,8.121 v 0 49.038 z"
               style="fill:url(#linearGradient196);stroke:none"
               id="path198" />
          </g>
        </g>
      </g>
    </g>
    <g
       id="g200"
       transform="matrix(0.44286948,0,0,-0.44286948,-59.292758,116.32221)">
      <g
         id="g202">
        <g
           id="g208">
          <g
             id="g210">
            <path
               d="m 420.428,177.713 c -2.929,0 -5.632,0.176 -8.036,0.522 v 0 c -0.293,0.041 -0.585,0.086 -0.874,0.133 v 0 l 0.139,-0.42 0.287,-0.861 0.811,-2.434 0.168,-0.769 0.251,-65.82 -1.855,-0.885 c -4.538,-2.165 -7.49,-5.065 -8.932,-8.801 v 0 l 0.063,0.01 c 2.162,0.533 3.969,0.792 5.518,0.792 v 0 c 7.37,0 15.179,-4.075 23.808,-12.44 v 0 c 11.975,10.365 27.289,15.616 45.577,15.616 v 0 c 2.12,0 4.547,-0.186 7.325,-0.563 v 0 c -1.504,3.005 -2.262,6.274 -2.262,9.779 v 0 58.389 l 2.041,0.816 c 0.125,0.049 0.591,0.278 1.378,1.135 v 0 c 0.825,0.903 1.766,1.951 2.813,3.146 v 0 c 0.919,1.527 1.686,2.796 2.31,3.811 v 0 c 0.259,0.423 0.422,0.807 0.476,1.126 v 0 c -0.015,-0.007 -0.03,-0.011 -0.046,-0.018 v 0 c -1.497,-0.536 -2.813,-0.798 -4.017,-0.798 v 0 c -1.679,0 -3.853,0.454 -6.65,1.389 v 0 c -4.59,1.696 -9.27,5.892 -14.316,12.814 v 0 c -13.702,-10.4 -29.154,-15.669 -45.977,-15.669 m 30.049,-75.365 c -5.091,4.697 -7.07,5.873 -7.684,6.161 v 0 c -1.104,0.316 -1.897,0.557 -2.383,0.72 v 0 l -1.185,0.397 c -1.804,0.19 -3.438,0.737 -4.871,1.632 v 0 l -12.805,4.291 h 11.271 v 60.589 h 3.244 c 2.858,0 5.357,0.653 7.639,1.995 v 0 l 2.676,1.575 1.69,-2.605 c 3.322,-5.125 7.099,-7.678 11.542,-7.807 v 0 l 3.15,-0.091 v -65.519 h -2.979 c -1.236,-0.382 -2.337,-0.613 -3.334,-0.696 v 0 l -4.325,-2.161 z"
               style="fill:url(#linearGradient216);stroke:none"
               id="path218" />
          </g>
        </g>
      </g>
    </g>
    <g
       id="g220"
       transform="matrix(0.44286948,0,0,-0.44286948,-59.292758,116.32221)">
      <g
         id="g222">
        <g
           id="g228">
          <g
             id="g230">
            <path
               d="m 506.448,172.072 c 0.004,-0.002 0.009,-0.004 0.013,-0.005 v 0 l 0.334,-0.13 c 2.007,-0.917 3.821,-1.987 5.387,-3.183 v 0 c 1.644,-1.262 3.147,-2.857 4.472,-4.744 v 0 l 0.589,-0.839 v -52.943 l -2.144,-2.144 h -0.606 l -1.749,-1.166 c -0.378,-0.252 -1.045,-0.768 -2.071,-1.794 v 0 c -2.697,-2.697 -4.579,-5.368 -5.629,-7.985 v 0 c 0.578,0.167 1.144,0.345 1.697,0.53 v 0 c 1.564,0.517 3.345,0.778 5.304,0.778 v 0 c 8.106,0 16.701,-3.948 25.583,-11.74 v 0 l 20.714,20.111 -0.957,1.043 -4.295,-4.295 -2.294,2.292 c -2.86,2.858 -5.567,4.435 -8.048,4.685 v 0 l 0.022,0.442 -0.078,-0.397 c -0.882,0.173 -1.671,0.35 -2.37,0.527 v 0 c -0.87,0.214 -1.575,0.456 -2.129,0.736 v 0 l -1.785,0.899 v 47.283 l 9.757,10.119 2.334,-2.25 c 3.802,-3.664 7.542,-5.445 11.431,-5.445 v 0 c 4.96,0 8.894,1.655 12.029,5.061 v 0 c 3.054,3.32 4.612,7.398 4.752,12.445 v 0 c -1.643,-0.859 -3.146,-1.273 -4.566,-1.273 v 0 c -6.063,0 -10.829,3.809 -14.213,11.339 v 0 c -3.059,-4.517 -5.932,-8.136 -8.567,-10.786 v 0 c -0.967,-1.13 -1.861,-2.142 -2.669,-3.033 v 0 c -0.8,-0.877 -1.594,-1.714 -2.386,-2.511 v 0 l -6.169,-8.224 -1.639,6.643 c -2.247,9.115 -6.414,15.609 -12.695,19.753 v 0 c -4.578,-7.971 -10.392,-14.602 -17.359,-19.799"
               style="fill:url(#linearGradient236);stroke:none"
               id="path238" />
          </g>
        </g>
      </g>
    </g>
    <g
       id="g240"
       transform="matrix(0.44286948,0,0,-0.44286948,-59.292758,116.32221)">
      <g
         id="g242">
        <g
           id="g248">
          <g
             id="g250">
            <path
               d="m 589.787,173.358 c 1.979,-1.956 3.045,-2.741 3.57,-3.056 v 0 l 3.767,-1.461 11.48,-3.866 c 0.152,-0.051 0.289,-0.075 0.431,-0.075 v 0 h 5.831 c 4.363,0 9.18,2.077 12.142,5.846 v 0 l 2.592,3.298 -0.532,0.004 h -5.307 -1.825 -10.203 l 8.159,3.263 -2.122,3.389 c -0.779,1.242 -1.891,2.869 -3.305,4.837 v 0 c -1.072,1.487 -1.838,2.46 -2.375,3.094 v 0 c -6.012,-6.362 -13.486,-11.479 -22.303,-15.273 m 40.992,0.69 c -0.47,0 -1.179,-0.004 -1.179,-0.004 v 0 l 2.539,-3.339 c 2.72,-3.573 4.323,-3.85 4.749,-3.85 v 0 h 3.243 V 104.12 l -2.145,-2.145 h -0.644 c -1.768,-0.984 -4.009,-1.465 -6.807,-1.465 v 0 c -6.633,0 -12.54,2.828 -17.558,8.404 v 0 c -4.609,5.156 -6.94,11.39 -6.94,18.539 v 0 c 0,2.078 0.367,4.464 1.093,7.093 v 0 c 0.706,2.565 1.943,5.538 3.677,8.831 v 0 l 2.136,4.058 16.114,-17.412 1.295,1.139 -29.201,33.114 h -2.718 c 0.26,-0.311 0.513,-0.616 0.762,-0.917 v 0 c 1.534,-1.859 2.946,-3.513 4.201,-4.921 v 0 c 2.146,-2.316 3.728,-4.059 4.789,-5.282 v 0 c 1.534,-1.772 2.059,-2.493 2.32,-2.881 v 0 l 1.799,-2.676 -2.663,-1.815 c -14.007,-9.546 -20.816,-19.938 -20.816,-31.769 v 0 c 0,-3.572 0.28,-6.292 0.832,-8.082 v 0 l 0.049,-0.172 c 0.698,-2.801 1.938,-5.352 3.684,-7.581 v 0 c 1.805,-2.317 4.214,-4.539 7.161,-6.613 v 0 c 6.106,-3.702 12.411,-5.579 18.745,-5.579 v 0 h 0.271 l 18.862,16.086 1.85,-3.715 c 0.668,-1.339 1.552,-2.596 2.631,-3.737 v 0 c 1.281,-1.36 2.705,-2.824 4.236,-4.356 v 0 c 3.576,-3.002 6.947,-4.524 10.02,-4.524 v 0 h 0.608 l 0.245,0.246 h 0.734 l 0.244,0.243 h 0.969 l 11.02,15.393 c -2.795,0.561 -5.252,1.702 -7.331,3.411 v 0 c -3.01,2.467 -4.604,5.912 -4.604,9.957 v 0 52.441 l 1.615,0.937 c 5.102,2.964 7.968,6.685 8.702,11.323 v 0 c -2.509,-0.679 -4.414,-1.003 -5.85,-1.003 v 0 c -2.988,0 -5.989,1.118 -8.972,3.336 v 0 -0.307 l -1.742,1.727 c -0.815,0.726 -1.631,1.535 -2.443,2.426 v 0 l -1.344,1.333 c -0.349,0.347 -0.674,0.691 -0.972,1.029 v 0 c -7.487,-9.808 -12.821,-14.186 -17.266,-14.186"
               style="fill:url(#linearGradient256);stroke:none"
               id="path258" />
          </g>
        </g>
      </g>
    </g>
    <g
       id="g260"
       transform="matrix(0.44286948,0,0,-0.44286948,-59.292758,116.32221)">
      <g
         id="g262">
        <g
           id="g268">
          <g
             id="g270">
            <path
               d="m 688.891,219.294 0.766,-0.768 4.684,4.685 2.293,-2.379 c 3.742,-3.88 10.848,-5.848 21.121,-5.848 v 0 c 12.216,0 26.837,3.532 43.453,10.497 v 0 l 14.233,5.967 -10.627,-11.192 c -14.981,-15.777 -25.461,-30.265 -31.149,-43.06 v 0 l -0.855,-1.926 h -2.109 c -9.308,0 -17.351,0.845 -23.969,2.514 v 0 l -7.203,-17.923 c 0.225,0.055 0.45,0.112 0.674,0.17 v 0 c 2.132,0.552 4.402,1.229 6.751,2.014 v 0 l 0.544,0.13 c 3.139,0.473 6.125,0.888 8.874,1.233 v 0 c 2.635,0.33 4.981,0.581 6.975,0.748 v 0 l 5.038,0.421 -1.717,-4.756 C 714.873,127.15 700.963,103.273 685.304,88.804 v 0 l 0.332,-1.076 c 2.153,0.8 4.129,1.508 5.902,2.115 v 0 c 2.633,0.907 4.921,1.627 6.793,2.137 v 0 c 11.49,2.998 23.602,4.513 36.036,4.513 v 0 h 2.687 c 1.376,0 2.988,-0.085 4.929,-0.257 v 0 c 1.677,-0.154 3.057,-0.232 4.111,-0.232 v 0 h 2.199 c 3.778,0 9.515,-1.163 17.539,-3.556 v 0 c 3.983,-1.158 7.404,-2.357 10.146,-3.557 v 0 c 1.631,-0.713 3.132,-1.438 4.489,-2.169 v 0 l 19.282,24.559 -0.997,0.652 -3.656,-4.298 -8.849,2.529 c -7.923,2.016 -15.709,3.051 -23.052,3.051 v 0 c -13.393,0 -28.63,-3.138 -45.288,-9.326 v 0 l -17.657,-6.558 14.445,12.087 c 9.627,8.054 18.356,18.078 25.946,29.792 v 0 c 2.234,3.84 4.424,7.74 6.508,11.595 v 0 c 2.062,3.816 3.995,7.773 5.75,11.76 v 0 l 0.937,2.134 27.226,-2.456 8.449,17.105 c -0.45,-0.024 -0.917,-0.037 -1.395,-0.037 v 0 -0.243 c -1.355,0 -2.899,-0.214 -4.589,-0.636 v 0 l -0.207,0.636 0.042,-0.711 -10.506,-1.225 c -2.424,-0.326 -4.564,-0.578 -6.304,-0.741 v 0 c -1.78,-0.171 -3.24,-0.258 -4.334,-0.258 v 0 h -4.404 l 0.684,2.203 h -2.123 l 2.302,0.575 0.442,1.427 c 2.311,7.443 5.246,14.92 8.722,22.22 v 0 c 3.439,7.221 7.429,14.717 11.858,22.278 v 0 l 0.181,0.276 c 3.572,4.884 6.499,8.914 8.776,12.087 v 0 c 1.524,2.126 2.864,3.874 4.051,5.278 v 0 l -0.354,0.474 c -12.446,-6.653 -27.006,-10.023 -43.327,-10.023 v 0 c -11.481,0 -22.443,2.267 -32.581,6.738 v 0 c -3.331,1.576 -5.9,2.88 -7.767,3.948 v 0 z"
               style="fill:url(#linearGradient276);stroke:none"
               id="path278" />
          </g>
        </g>
      </g>
    </g>
    <g
       id="g280"
       transform="matrix(0.44286948,0,0,-0.44286948,-59.292758,116.32221)">
      <g
         id="g282">
        <g
           id="g288">
          <g
             id="g290">
            <path
               d="m 357.223,153.553 19.899,-0.695 v 9.966 l -19.899,9.27 z"
               style="fill:url(#linearGradient296);stroke:none"
               id="path298" />
          </g>
        </g>
      </g>
    </g>
    <g
       id="g300"
       transform="matrix(0.44286948,0,0,-0.44286948,-59.292758,116.32221)">
      <g
         id="g302">
        <g
           id="g308">
          <g
             id="g310">
            <path
               d="M 418.119,108.626 H 432.82 V 156.98 H 418.119 Z"
               style="fill:url(#linearGradient316);stroke:none"
               id="path318" />
          </g>
        </g>
      </g>
    </g>
    <g
       id="g320"
       transform="matrix(0.44286948,0,0,-0.44286948,-59.292758,116.32221)">
      <g
         id="g322">
        <g
           id="g328">
          <g
             id="g330">
            <path
               d="m 193.536,109.793 13.124,7.954 -13.124,51.89 z"
               style="fill:url(#linearGradient336);stroke:none"
               id="path338" />
          </g>
        </g>
      </g>
    </g>
    <path
       d="M 202.79707,14.489834 H 71.527914 c 0,0 7.167405,-2.593439 16.384396,-2.593439 h 114.88476 c 0,0 0.96457,0.92206 0,2.593439"
       style="fill:#ffffff;fill-opacity:1;fill-rule:nonzero;stroke:none;stroke-width:0.44287"
       id="path1090" />
  </g>
</svg>
